Coordinates
version=1
nRows=19
nColumns=24
inDegrees=yes

Units are S.I. units (second, meters, Newtons, ...)
Angles are in degrees.

endheader
time	pelvis_tilt	pelvis_list	pelvis_rotation	pelvis_tx	pelvis_ty	pelvis_tz	hip_flexion_r	hip_adduction_r	hip_rotation_r	knee_angle_r	ankle_angle_r	subtalar_angle_r	mtp_angle_r	hip_flexion_l	hip_adduction_l	hip_rotation_l	knee_angle_l	ankle_angle_l	subtalar_angle_l	mtp_angle_l	lumbar_extension	lumbar_bending	lumbar_rotation
      0.93750000	      3.92577203	     -0.06432414	     -2.31661979	     -0.38863967	      1.07764910	      0.31390742	      3.30429453	      6.07365867	     -1.78767915	    -12.12940231	      1.77839456	     -9.70011707	      6.93529743	      6.71315582	      0.44226373	     -1.25073859	    -50.55089416	      2.29920575	    -21.34731634	     -2.38931882	      0.26154294	      3.42522891	      2.94543563
      0.94166667	      3.85494241	     -0.11756274	     -2.38086157	     -0.38345450	      1.07791976	      0.31432177	      2.98416616	      6.16353492	     -1.57353457	    -11.92912805	      1.62447330	     -9.87940623	      6.92506608	      7.26407163	      0.37878247	     -0.96449010	    -50.13895593	      2.70659748	    -21.78370372	     -2.44713988	      0.42551735	      3.25130971	      2.75002220
      0.94583333	      3.80689640	     -0.15800302	     -2.46953340	     -0.37834987	      1.07820125	      0.31452236	      2.65854932	      6.21212567	     -1.41604908	    -11.78610527	      1.68253851	    -10.03951421	      6.91639312	      7.78344309	      0.35587816	     -0.67384540	    -49.68361116	      2.96541087	    -22.20259818	     -2.51211974	      0.48842128	      3.27961833	      2.59778063
      0.95000000	      3.75886346	     -0.18752328	     -2.58433508	     -0.37326844	      1.07845724	      0.31463962	      2.34879912	      6.23522187	     -1.33326021	    -11.67962969	      1.79910515	    -10.18922192	      6.90142401	      8.29280733	      0.35502620	     -0.39952047	    -49.19528181	      3.14005820	    -22.73603936	     -2.63258913	      0.54061894	      3.28818234	      2.44967802
      0.95416667	      3.73920142	     -0.23737936	     -2.66200516	     -0.36824740	      1.07872968	      0.31481760	      1.98561004	      6.28677542	     -1.17513897	    -11.51379330	      1.85232744	    -10.15854082	      6.89833464	      8.77423940	      0.32126655	     -0.07401969	    -48.69465203	      3.22807213	    -22.88209524	     -2.66692852	      0.51934839	      3.29342351	      2.44205532
      0.95833333	      3.73124566	     -0.30335928	     -2.74143063	     -0.36315959	      1.07900573	      0.31493906	      1.60446456	      6.35042082	     -1.09766407	    -11.35195997	      2.04899382	    -10.16140652	      6.88396908	      9.22764049	      0.27515698	      0.22451102	    -48.17050373	      3.41439295	    -23.31027771	     -2.78323218	      0.54210860	      3.36285307	      2.44700586
      0.96250000	      3.71643939	     -0.37982134	     -2.81351681	     -0.35814101	      1.07923138	      0.31510709	      1.22483505	      6.42948689	     -0.96061539	    -11.16617011	      2.12711818	    -10.10319098	      6.87842426	      9.69132800	      0.20794827	      0.54185405	    -47.63614448	      3.48763127	    -23.42973035	     -2.83124238	      0.52494444	      3.39397121	      2.47193390
      0.96666667	      3.69583800	     -0.43582351	     -2.91527931	     -0.35314511	      1.07943383	      0.31515760	      0.86164103	      6.46767784	     -0.84957078	    -11.00231207	      2.20744080	    -10.06790384	      6.87490947	     10.14660591	      0.17741534	      0.86298272	    -47.06405365	      3.57495181	    -23.50940095	     -2.86012369	      0.48990340	      3.44576605	      2.49293516
      0.97083333	      3.69283106	     -0.53318709	     -2.96261766	     -0.34812370	      1.07962228	      0.31529454	      0.45332234	      6.56884745	     -0.74627590	    -10.78742568	      2.36370984	    -10.01131028	      6.86757489	     10.58622083	      0.08821098	      1.19594026	    -46.49775927	      3.69426024	    -23.61093658	     -2.91180656	      0.50629542	      3.53652549	      2.55159768
      0.97500000	      3.67535554	     -0.61734755	     -3.03270863	     -0.34312461	      1.07977143	      0.31533875	      0.06896784	      6.64040850	     -0.65749423	    -10.58796587	      2.49851205	     -9.94703590	      6.85966080	     11.03076275	      0.02378025	      1.53376158	    -45.90209239	      3.78064637	    -23.63678048	     -2.96023532	      0.48772555	      3.62945651	      2.61378825
      0.97916667	      3.66218780	     -0.70855212	     -3.09696859	     -0.33814567	      1.07989993	      0.31536426	     -0.32459911	      6.71735059	     -0.57562133	    -10.37797788	      2.63802885	     -9.86654390	      6.84971835	     11.46410980	     -0.04796142	      1.88130733	    -45.28632141	      3.85986275	    -23.59818459	     -3.01286503	      0.47495579	      3.73786146	      2.69246695
      0.98333333	      3.65117052	     -0.80287596	     -3.14647805	     -0.33317296	      1.08000666	      0.31528049	     -0.71449074	      6.78775415	     -0.57839397	    -10.18470312	      2.87214118	     -9.72328590	      6.81925670	     11.89107434	     -0.11152778	      2.25384182	    -44.65785812	      3.98856414	    -23.36483759	     -3.13996925	      0.43177883	      3.92539804	      2.88496986
      0.98750000	      3.61263976	     -0.89525450	     -3.23858331	     -0.32821352	      1.08004683	      0.31528134	     -1.08509898	      6.85904548	     -0.44914324	     -9.96527223	      2.91003516	     -9.65375401	      6.81353013	     12.33424269	     -0.18668489	      2.58776162	    -44.00365108	      4.03987590	    -23.31445681	     -3.16419464	      0.39149130	      3.98026312	      2.91614369
      0.99166667	      3.60933287	     -1.01512534	     -3.25732316	     -0.32323503	      1.08009871	      0.31523806	     -1.50597367	      6.96629399	     -0.43482242	     -9.72030377	      3.09219890	     -9.54714657	      6.78090357	     12.74421756	     -0.28439309	      2.96944816	    -43.35118710	      4.13929774	    -22.91685697	     -3.26566523	      0.38890291	      4.18920868	      3.07128795
      0.99583333	      3.57158767	     -1.12607483	     -3.32361173	     -0.31828408	      1.08007526	      0.31521779	     -1.89365575	      7.05879767	     -0.29454565	     -9.46716984	      3.13628737	     -9.46867417	      6.77249282	     13.17662275	     -0.37969849	      3.31887204	    -42.67051033	      4.19562496	    -22.82024278	     -3.29177200	      0.36626568	      4.26277417	      3.10835235
      1.00000000	      3.55877729	     -1.25822451	     -3.34800490	     -0.31331474	      1.08006051	      0.31520697	     -2.31863037	      7.18150918	     -0.21495042	     -9.18700115	      3.23566451	     -9.39002107	      6.75732953	     13.58063919	     -0.49766458	      3.67993499	    -41.97920964	      4.22307644	    -22.54880072	     -3.32949974	      0.38457479	      4.42658306	      3.17491567
      1.00416667	      3.51357820	     -1.36624489	     -3.42416698	     -0.30836511	      1.07998372	      0.31504827	     -2.69455120	      7.25420335	     -0.12147172	     -8.94877728	      3.30027394	     -9.33185147	      6.74816437	     13.99765696	     -0.57684232	      4.05562444	    -41.24939516	      4.25407371	    -22.35176630	     -3.34938980	      0.34902145	      4.55260274	      3.21148667
      1.00833333	      3.51667291	     -1.50108493	     -3.41185040	     -0.30340375	      1.07992035	      0.31493749	     -3.13572397	      7.37827095	     -0.16636080	     -8.67024946	      3.45313133	     -9.25856382	      6.70785339	     14.37469810	     -0.68503620	      4.44256120	    -40.53189211	      4.35855115	    -21.62897580	     -3.41334449	      0.29196245	      4.79392561	      3.35990927
      1.01250000	      3.47422254	     -1.63182601	     -3.45701429	     -0.29845049	      1.07978319	      0.31484571	     -3.53879276	      7.48823042	     -0.01370946	     -8.37870016	      3.48295519	     -9.17841199	      6.69696401	     14.77997459	     -0.79637388	      4.80792596	    -39.78327001	      4.40925156	    -21.48099938	     -3.43102575	      0.29598259	      4.89570156	      3.39354003
